<svg width="138" height="138" fill="none" xmlns="http://www.w3.org/2000/svg"><g filter="url(#filter0_d)"><circle cx="69" cy="61" r="45" fill="#fff"/></g><path d="M91 50.879V71.12c0 1.591-1.324 2.88-2.958 2.88H49.958C48.324 74 47 72.71 47 71.12V50.879C47 49.289 48.324 48 49.958 48h38.084C89.676 48 91 49.289 91 50.879z" fill="#B3E59F"/><path d="M59.65 61c0 5.025 4.186 9.1 9.35 9.1s9.35-4.075 9.35-9.1c0-5.026-4.186-9.1-9.35-9.1s-9.35 4.074-9.35 9.1z" fill="#95D6A4"/><path d="M70.126 66.116v-.223c1.14-.406 2.007-1.378 2.218-2.6.263-1.522-.583-2.896-2.105-3.42-.737-.254-1.55-.558-1.984-.89-.025-.019-.073-.145-.038-.33.018-.09.098-.392.396-.48.726-.212 1.187.136 1.237.177a1.2 1.2 0 001.658-.15 1.125 1.125 0 00-.152-1.613c-.707-.572-1.977-1.033-3.422-.609a2.903 2.903 0 00-2.031 2.251c-.195 1.006.15 1.986.898 2.558.701.535 1.69.916 2.653 1.247.45.155.641.45.568.879-.057.33-.35.89-1.082.894-.767.005-.949-.023-1.509-.38a1.198 1.198 0 00-1.63.333c-.13.193-.192.41-.192.626 0 .374.187.74.533.96.612.39 1.099.585 1.628.677v.093c0 .633.528 1.146 1.178 1.146.65 0 1.178-.513 1.178-1.146z" fill="#B3E59F"/><path d="M91 65.767v5.354C91 72.711 89.676 74 88.042 74h-5.501c0-4.548 3.788-8.233 8.459-8.233zm0-14.888v5.354c-4.671 0-8.46-3.686-8.46-8.233h5.502C89.676 48 91 49.289 91 50.879z" fill="#95D6A4"/><defs><filter id="filter0_d" x="0" y="0" width="138" height="138" filterUnits="userSpaceOnUse" color-interpolation-filters="sRGB"><feFlood flood-opacity="0" result="BackgroundImageFix"/><feColorMatrix in="SourceAlpha" values="0 0 0 0 0 0 0 0 0 0 0 0 0 0 0 0 0 0 127 0"/><feOffset dy="8"/><feGaussianBlur stdDeviation="12"/><feColorMatrix values="0 0 0 0 0.209553 0 0 0 0 0.374091 0 0 0 0 0.620898 0 0 0 0.1 0"/><feBlend in2="BackgroundImageFix" result="effect1_dropShadow"/><feBlend in="SourceGraphic" in2="effect1_dropShadow" result="shape"/></filter></defs></svg>