<svg width="138" height="138" fill="none" xmlns="http://www.w3.org/2000/svg"><g filter="url(#filter0_d)"><circle cx="69" cy="61" r="45" fill="#fff"/></g><path d="M45.327 43.91c0-3.82 3.159-6.91 7.033-6.854 3.754.053 6.806 3.097 6.83 6.81a6.807 6.807 0 01-2.376 5.21.296.296 0 00.044.48l1.306.765c.211.124.122.444-.123.444l-5.914-.002c-3.767-.069-6.8-3.11-6.8-6.853z" fill="#7ACAA6"/><path d="M58.164 50.321l-1.306-.764a.295.295 0 01-.046-.48 6.807 6.807 0 002.377-5.278c-.059-3.644-3.04-6.635-6.724-6.741a7.064 7.064 0 00-1.524.12c3.184.604 5.61 3.38 5.632 6.688a6.777 6.777 0 01-1.457 4.249 1.47 1.47 0 00.404 2.19l.027.016c.21.122.125.436-.115.443h2.609c.245 0 .334-.32.123-.443z" fill="#57BE92"/><path d="M79.1 61.937H63.375c-3.927 0-6.077-4.526-3.568-7.515l.14-.166a7.287 7.287 0 001.709-4.685v-3c0-5.255 4.308-9.516 9.623-9.516 5.314 0 9.623 4.26 9.623 9.517v3.1c0 1.729.617 3.402 1.743 4.725 2.54 2.983.396 7.54-3.547 7.54z" fill="#C59191"/><path d="M87.365 69.644v10.28H55.11V69.722a5.74 5.74 0 013.551-5.29l5.207-2.24 1.753-.753a3.602 3.602 0 002.191-3.305v-.665h6.848v.631c0 1.44.87 2.744 2.209 3.312l7.042 2.985a5.737 5.737 0 013.453 5.248z" fill="#fff"/><path d="M63.869 64.643a25.229 25.229 0 0014.737-.137l.85-2-2.586-1.095a3.602 3.602 0 01-2.208-3.312v-.631h-6.849v.665a3.6 3.6 0 01-2.19 3.304l-2.094.901.34 2.305z" fill="#FFCEBF"/><path d="M83.912 64.396l-5.305-2.249v17.777h8.758v-10.28a5.738 5.738 0 00-3.453-5.248zM63.87 62.192v17.733h-8.76V69.722a5.74 5.74 0 013.552-5.291l5.207-2.239z" fill="#8795DE"/><path d="M73.611 61.185a5.82 5.82 0 002.223-.438 3.585 3.585 0 01-1.172-2.648v-.631h-6.849v.665c0 .518-.112 1.019-.319 1.473a5.791 5.791 0 003.986 1.58h2.131z" fill="#FFB09E"/><path d="M78.082 47.279v5.603c0 3.157-2.587 5.716-5.779 5.716h-2.131c-3.192 0-5.78-2.56-5.78-5.716V47.28c0-2.054 1.684-3.718 3.76-3.718h6.17c2.077 0 3.76 1.664 3.76 3.718z" fill="#FFCEBF"/><path d="M78.082 50.194l-.008.023c-.209.714-.757 2.062-2.082 3.072A5.85 5.85 0 0173.9 54.3a.646.646 0 10.332 1.252 7.16 7.16 0 002.559-1.237 6.972 6.972 0 001.288-1.281l.003-.15v-2.689z" fill="#7A6D79"/><path d="M73.183 56.088H71.65c-.698 0-1.263-.56-1.263-1.25s.566-1.249 1.263-1.249h1.533c.698 0 1.263.56 1.263 1.25s-.565 1.25-1.263 1.25z" fill="#685E68"/><path d="M72.603 42.078c.147-1.831 1.92-3.046 3.615-3.675 2.806 1.663 4.684 4.699 4.684 8.169v.654a7.876 7.876 0 01-2.736.083c-3.502-.461-5.74-3.02-5.563-5.231z" fill="#B98080"/><path d="M71.28 37.055a9.65 9.65 0 015.789 1.914 17.058 17.058 0 01-6.11 6.142 17.16 17.16 0 01-6.482 2.198h-2.82v-.737c0-5.256 4.308-9.517 9.623-9.517z" fill="#C59191"/><path d="M82.037 79.924h-20.94L59.944 69.15a1.3 1.3 0 011.3-1.43h20.648a1.3 1.3 0 011.3 1.43l-1.154 10.775z" fill="#EFEDEF"/><path d="M81.89 67.72h-2.616a1.3 1.3 0 011.301 1.43L79.42 79.923h2.617L83.19 69.15a1.3 1.3 0 00-1.3-1.43z" fill="#E5E1E5"/><path d="M88.356 80.571H45.645a.641.641 0 01-.645-.637c0-.352.288-.638.645-.638h42.71c.356 0 .645.286.645.638a.641.641 0 01-.644.637zm-16.789-4.938a1.822 1.822 0 001.832-1.811c0-1-.82-1.812-1.832-1.812a1.822 1.822 0 00-1.831 1.812c0 1 .82 1.811 1.831 1.811z" fill="#C9BFC8"/><path d="M49.642 44.557a.65.65 0 00.654-.647.65.65 0 00-.654-.647.65.65 0 00-.654.647.65.65 0 00.654.647zm2.616 0a.65.65 0 00.654-.647.65.65 0 00-.654-.647.65.65 0 00-.654.647.65.65 0 00.654.647zm2.617 0a.65.65 0 00.654-.647.65.65 0 00-.654-.647.65.65 0 00-.654.647.65.65 0 00.654.647z" fill="#fff"/><defs><filter id="filter0_d" x="0" y="0" width="138" height="138" filterUnits="userSpaceOnUse" color-interpolation-filters="sRGB"><feFlood flood-opacity="0" result="BackgroundImageFix"/><feColorMatrix in="SourceAlpha" values="0 0 0 0 0 0 0 0 0 0 0 0 0 0 0 0 0 0 127 0"/><feOffset dy="8"/><feGaussianBlur stdDeviation="12"/><feColorMatrix values="0 0 0 0 0.209553 0 0 0 0 0.374091 0 0 0 0 0.620898 0 0 0 0.1 0"/><feBlend in2="BackgroundImageFix" result="effect1_dropShadow"/><feBlend in="SourceGraphic" in2="effect1_dropShadow" result="shape"/></filter></defs></svg>