<svg width="138" height="138" fill="none" xmlns="http://www.w3.org/2000/svg"><g filter="url(#filter0_d)"><circle cx="69" cy="61" r="45" fill="#fff"/></g><path d="M86.156 42.645c-7.784 0-15.85-7.136-15.93-7.208a1.418 1.418 0 00-1.89 0c-.08.073-8.125 7.208-15.93 7.208-.776 0-1.406.622-1.406 1.39v16.657c0 13.492 10.147 18.884 17.78 21.766a1.42 1.42 0 001.003 0c10.702-4.04 17.78-10.344 17.78-21.766V44.036c0-.769-.63-1.391-1.407-1.391z" fill="url(#paint0_linear)"/><path d="M69.281 49.078c-5.428 0-9.844 4.367-9.844 9.735 0 5.368 4.416 9.736 9.844 9.736 5.428 0 9.844-4.368 9.844-9.736s-4.416-9.736-9.844-9.736zm3.807 9.328l-4.219 4.172a1.41 1.41 0 01-.994.407c-.36 0-.72-.135-.994-.407l-1.407-1.39a1.38 1.38 0 010-1.968 1.417 1.417 0 011.99 0l.411.408 3.225-3.19a1.417 1.417 0 011.988 0 1.38 1.38 0 010 1.968z" fill="url(#paint1_linear)"/><defs><linearGradient id="paint0_linear" x1="69.281" y1="82.549" x2="69.281" y2="35.077" gradientUnits="userSpaceOnUse"><stop stop-color="#00B59C"/><stop offset="1" stop-color="#9CFFAC"/></linearGradient><linearGradient id="paint1_linear" x1="69.281" y1="68.549" x2="69.281" y2="49.078" gradientUnits="userSpaceOnUse"><stop stop-color="#C3FFE8"/><stop offset=".997" stop-color="#F0FFF4"/></linearGradient><filter id="filter0_d" x="0" y="0" width="138" height="138" filterUnits="userSpaceOnUse" color-interpolation-filters="sRGB"><feFlood flood-opacity="0" result="BackgroundImageFix"/><feColorMatrix in="SourceAlpha" values="0 0 0 0 0 0 0 0 0 0 0 0 0 0 0 0 0 0 127 0"/><feOffset dy="8"/><feGaussianBlur stdDeviation="12"/><feColorMatrix values="0 0 0 0 0.209553 0 0 0 0 0.374091 0 0 0 0 0.620898 0 0 0 0.1 0"/><feBlend in2="BackgroundImageFix" result="effect1_dropShadow"/><feBlend in="SourceGraphic" in2="effect1_dropShadow" result="shape"/></filter></defs></svg>