<svg width="138" height="138" fill="none" xmlns="http://www.w3.org/2000/svg"><g filter="url(#filter0_d)"><circle cx="69" cy="61" r="45" fill="#fff"/></g><path d="M87.447 45.511l.39-4.237c.038-.413.221-.8.518-1.093l5.368-5.31a.904.904 0 011.268 0l3.215 3.18a.88.88 0 010 1.253l-5.369 5.31a1.801 1.801 0 01-1.105.512l-4.285.385zm-17.93 39.014c11.883 0 21.516-9.527 21.516-21.28 0-11.753-9.633-21.28-21.516-21.28C57.633 41.965 48 51.492 48 63.245c0 11.753 9.633 21.28 21.517 21.28z" fill="#FF6464"/><path d="M69.519 79.206c8.912 0 16.137-7.145 16.137-15.96 0-8.815-7.225-15.96-16.137-15.96-8.913 0-16.138 7.145-16.138 15.96 0 8.815 7.225 15.96 16.138 15.96z" fill="#fff"/><path d="M69.518 73.886c5.942 0 10.759-4.764 10.759-10.64 0-5.877-4.817-10.64-10.759-10.64-5.941 0-10.758 4.763-10.758 10.64 0 5.876 4.817 10.64 10.758 10.64z" fill="#FF6464"/><path d="M69.518 68.566c2.97 0 5.38-2.382 5.38-5.32s-2.41-5.32-5.38-5.32c-2.97 0-5.38 2.382-5.38 5.32s2.41 5.32 5.38 5.32z" fill="#fff"/><path d="M69.516 64.132a.899.899 0 01-.634-.26.88.88 0 010-1.253l29.586-29.26a.903.903 0 011.267 0 .877.877 0 010 1.253L70.15 63.872a.898.898 0 01-.634.26z" fill="#464655"/><path d="M99.738 33.359a.903.903 0 00-1.268 0l-1.53 1.513 1.267 1.254 1.53-1.514a.88.88 0 000-1.253z" fill="#FF6464"/><defs><filter id="filter0_d" x="0" y="0" width="138" height="138" filterUnits="userSpaceOnUse" color-interpolation-filters="sRGB"><feFlood flood-opacity="0" result="BackgroundImageFix"/><feColorMatrix in="SourceAlpha" values="0 0 0 0 0 0 0 0 0 0 0 0 0 0 0 0 0 0 127 0"/><feOffset dy="8"/><feGaussianBlur stdDeviation="12"/><feColorMatrix values="0 0 0 0 0.209553 0 0 0 0 0.374091 0 0 0 0 0.620898 0 0 0 0.1 0"/><feBlend in2="BackgroundImageFix" result="effect1_dropShadow"/><feBlend in="SourceGraphic" in2="effect1_dropShadow" result="shape"/></filter></defs></svg>