<svg width="1440" height="738" fill="none" xmlns="http://www.w3.org/2000/svg"><path d="M490.136 674s-48.677-467.405 237.525-430.838C1013.86 279.728 1002.33 142.26 1139.3 70.252c0 0 173.83-102.105 349.33-31.19V674H490.136z" fill="url(#paint0_linear)"/><path d="M490.136 674s-48.677-467.405 237.525-430.838C1013.86 279.728 1002.33 142.26 1139.3 70.252c0 0 173.83-102.105 349.33-31.19V674H490.136z" fill="url(#paint1_linear)"/><mask id="a" maskUnits="userSpaceOnUse" x="-445" y="0" width="917" height="1313"><path transform="rotate(90 472 0)" d="M472 0h1312.14v916H472z"/></mask><g mask="url(#a)"><path d="M472 0v1312.14h-916V0z"/><path fill="#05C5DA" d="M472 0v1312.14h-916V0z"/></g><defs><linearGradient id="paint0_linear" x1="1488.63" y1="344.002" x2="487.001" y2="344.002" gradientUnits="userSpaceOnUse"><stop stop-color="#EFF1FE"/><stop offset=".533" stop-color="#F5F6FE"/><stop offset="1" stop-color="#fff"/></linearGradient><linearGradient id="paint1_linear" x1="987.817" y1="14" x2="987.817" y2="674" gradientUnits="userSpaceOnUse"><stop stop-color="#fff" stop-opacity="0"/><stop offset="1" stop-color="#fff"/></linearGradient></defs></svg>